<svg width="132" height="28" viewBox="0 0 132 28" fill="none" xmlns="http://www.w3.org/2000/svg">
<rect width="60" height="28" rx="3" fill="#F8FAFC"/>
<path d="M21.6134 9.05335C21.2789 8.71773 20.8815 8.45144 20.4439 8.26974C20.0064 8.08804 19.5372 7.99451 19.0634 7.99451C18.5896 7.99451 18.1204 8.08804 17.6828 8.26974C17.2453 8.45144 16.8478 8.71773 16.5134 9.05335L16.0001 9.57335L15.4867 9.05335C15.1523 8.71773 14.7549 8.45144 14.3173 8.26974C13.8797 8.08804 13.4105 7.99451 12.9367 7.99451C12.4629 7.99451 11.9938 8.08804 11.5562 8.26974C11.1186 8.45144 10.7212 8.71773 10.3867 9.05335C8.97339 10.4667 8.88672 12.8533 10.6667 14.6667L16.0001 20L21.3334 14.6667C23.1134 12.8533 23.0267 10.4667 21.6134 9.05335Z" stroke="#94A3B8" stroke-width="2" stroke-linecap="round" stroke-linejoin="round"/>
<path d="M36.1506 9.27273V18H34.8295V10.5938H34.7784L32.6903 11.9574V10.696L34.8679 9.27273H36.1506ZM41.8224 9.27273V18H40.5014V10.5938H40.4503L38.3622 11.9574V10.696L40.5398 9.27273H41.8224ZM47.2216 18.1449C46.5483 18.142 45.973 17.9645 45.4957 17.6122C45.0185 17.2599 44.6534 16.7472 44.4006 16.0739C44.1477 15.4006 44.0213 14.5895 44.0213 13.6406C44.0213 12.6946 44.1477 11.8864 44.4006 11.2159C44.6563 10.5455 45.0227 10.0341 45.5 9.68182C45.9801 9.32955 46.554 9.15341 47.2216 9.15341C47.8892 9.15341 48.4616 9.33097 48.9389 9.68608C49.4162 10.0384 49.7813 10.5497 50.0341 11.2202C50.2898 11.8878 50.4176 12.6946 50.4176 13.6406C50.4176 14.5923 50.2912 15.4048 50.0384 16.0781C49.7855 16.7486 49.4205 17.2614 48.9432 17.6165C48.4659 17.9688 47.892 18.1449 47.2216 18.1449ZM47.2216 17.0071C47.8125 17.0071 48.2741 16.7188 48.6065 16.142C48.9418 15.5653 49.1094 14.7315 49.1094 13.6406C49.1094 12.9162 49.0327 12.304 48.8793 11.804C48.7287 11.3011 48.5114 10.9205 48.2273 10.6619C47.946 10.4006 47.6108 10.2699 47.2216 10.2699C46.6335 10.2699 46.1719 10.5597 45.8366 11.1392C45.5014 11.7187 45.3324 12.5526 45.3295 13.6406C45.3295 14.3679 45.4048 14.983 45.5554 15.4858C45.7088 15.9858 45.9261 16.3651 46.2074 16.6236C46.4886 16.8793 46.8267 17.0071 47.2216 17.0071Z" fill="#94A3B8"/>
<rect x="72" width="60" height="28" rx="3" fill="#F8FAFC"/>
<path d="M94 13.6667C94.0023 14.5466 93.7967 15.4146 93.4 16.2C92.9296 17.1412 92.2065 17.9328 91.3116 18.4862C90.4168 19.0396 89.3855 19.3329 88.3333 19.3334C87.4534 19.3356 86.5854 19.1301 85.8 18.7334L82 20L83.2667 16.2C82.87 15.4146 82.6644 14.5466 82.6667 13.6667C82.6671 12.6145 82.9604 11.5833 83.5138 10.6884C84.0672 9.79352 84.8588 9.0704 85.8 8.60002C86.5854 8.20331 87.4534 7.99772 88.3333 8.00002H88.6667C90.0562 8.07668 91.3687 8.66319 92.3528 9.64726C93.3368 10.6313 93.9233 11.9438 94 13.3334V13.6667Z" stroke="#94A3B8" stroke-width="2" stroke-linecap="round" stroke-linejoin="round"/>
<path d="M108.151 9.27273V18H106.83V10.5938H106.778L104.69 11.9574V10.696L106.868 9.27273H108.151ZM113.822 9.27273V18H112.501V10.5938H112.45L110.362 11.9574V10.696L112.54 9.27273H113.822ZM119.222 18.1449C118.548 18.142 117.973 17.9645 117.496 17.6122C117.018 17.2599 116.653 16.7472 116.401 16.0739C116.148 15.4006 116.021 14.5895 116.021 13.6406C116.021 12.6946 116.148 11.8864 116.401 11.2159C116.656 10.5455 117.023 10.0341 117.5 9.68182C117.98 9.32955 118.554 9.15341 119.222 9.15341C119.889 9.15341 120.462 9.33097 120.939 9.68608C121.416 10.0384 121.781 10.5497 122.034 11.2202C122.29 11.8878 122.418 12.6946 122.418 13.6406C122.418 14.5923 122.291 15.4048 122.038 16.0781C121.786 16.7486 121.42 17.2614 120.943 17.6165C120.466 17.9688 119.892 18.1449 119.222 18.1449ZM119.222 17.0071C119.813 17.0071 120.274 16.7188 120.607 16.142C120.942 15.5653 121.109 14.7315 121.109 13.6406C121.109 12.9162 121.033 12.304 120.879 11.804C120.729 11.3011 120.511 10.9205 120.227 10.6619C119.946 10.4006 119.611 10.2699 119.222 10.2699C118.634 10.2699 118.172 10.5597 117.837 11.1392C117.501 11.7187 117.332 12.5526 117.33 13.6406C117.33 14.3679 117.405 14.983 117.555 15.4858C117.709 15.9858 117.926 16.3651 118.207 16.6236C118.489 16.8793 118.827 17.0071 119.222 17.0071Z" fill="#94A3B8"/>
</svg>
